<svg width="16" height="25" viewBox="0 0 16 25" fill="none" xmlns="http://www.w3.org/2000/svg">
<path fill-rule="evenodd" clip-rule="evenodd" d="M7.25737 1.14043C7.49811 0.953189 7.83522 0.953189 8.07596 1.14043L14.076 5.8071C14.2384 5.9334 14.3333 6.12761 14.3333 6.33333V13.6667C14.3333 14.1971 14.1226 14.7058 13.7475 15.0809C13.3725 15.456 12.8638 15.6667 12.3333 15.6667H3C2.46957 15.6667 1.96086 15.456 1.58579 15.0809C1.21071 14.7058 1 14.1971 1 13.6667V6.33333C1 6.12761 1.09498 5.9334 1.25737 5.8071L7.25737 1.14043ZM2.33333 6.65939V13.6667C2.33333 13.8435 2.40357 14.013 2.5286 14.1381C2.65362 14.2631 2.82319 14.3333 3 14.3333H12.3333C12.5101 14.3333 12.6797 14.2631 12.8047 14.1381C12.9298 14.013 13 13.8435 13 13.6667V6.65939L7.66667 2.51124L2.33333 6.65939Z" fill="#F1F2F9"/>
<path fill-rule="evenodd" clip-rule="evenodd" d="M5 16.3333C5 15.9651 5.29848 15.6667 5.66667 15.6667H9.66667C10.0349 15.6667 10.3333 15.9651 10.3333 16.3333V23C10.3333 23.3682 10.0349 23.6667 9.66667 23.6667C9.29848 23.6667 9 23.3682 9 23V17H6.33333V23C6.33333 23.3682 6.03486 23.6667 5.66667 23.6667C5.29848 23.6667 5 23.3682 5 23V16.3333Z" fill="#F1F2F9"/>
</svg>
